<svg version="1.0" xmlns="http://www.w3.org/2000/svg"
 width="100%" height="100%" viewBox="0 0 1419.000000 1250.000000"
 preserveAspectRatio="xMidYMid meet">
<metadata>
Created by potrace 1.16, written by Peter Selinger 2001-2019
</metadata>
<g transform="translate(0.000000,1250.000000) scale(0.100000,-0.100000)"
fill="#FFFFFF" stroke="none">
<path d="M6415 12332 c-181 -93 -550 -280 -820 -416 -449 -228 -834 -424
-1420 -722 -121 -62 -219 -117 -218 -123 2 -6 -3 -8 -11 -5 -12 5 -272 -124
-906 -448 -113 -58 -437 -222 -720 -365 -640 -324 -680 -345 -674 -355 3 -4
-2 -5 -10 -2 -16 6 -224 -98 -242 -121 -6 -8 -15 -11 -19 -7 -21 19 22 -46 78
-118 34 -45 69 -92 77 -103 8 -12 80 -110 160 -217 80 -107 184 -247 230 -310
47 -63 171 -230 275 -370 105 -140 226 -304 270 -365 44 -60 171 -234 284
-385 113 -151 239 -322 281 -380 184 -254 383 -515 392 -512 5 1 7 -2 4 -7 -3
-5 57 -94 134 -197 77 -104 188 -253 246 -332 61 -82 110 -139 116 -136 7 4 8
2 4 -4 -6 -10 84 -138 261 -372 40 -52 114 -151 164 -220 51 -69 156 -210 234
-315 78 -104 162 -219 188 -255 26 -36 73 -99 104 -140 32 -41 89 -116 126
-167 l68 -92 -92 -118 c-51 -65 -92 -123 -92 -130 0 -7 -4 -10 -7 -8 -4 3 -34
-29 -66 -71 -33 -42 -146 -187 -252 -322 -107 -136 -217 -277 -245 -314 -29
-37 -55 -67 -59 -67 -8 -1 -502 320 -733 477 -38 26 -124 81 -190 124 -66 42
-178 115 -250 162 -71 47 -242 159 -379 248 -138 90 -339 222 -448 293 -108
72 -324 213 -479 315 -156 102 -313 205 -351 230 -37 25 -68 49 -68 54 0 5 39
73 86 149 48 77 101 165 119 196 18 31 96 160 173 286 78 127 187 304 243 395
55 91 144 235 196 320 52 85 119 196 148 245 29 50 84 142 122 205 154 254
185 310 180 323 -7 18 -426 269 -438 261 -5 -3 -8 -1 -7 5 3 11 -139 105 -285
188 -83 47 -100 54 -111 42 -20 -21 -116 -176 -356 -574 -246 -408 -377 -624
-510 -840 -51 -82 -113 -184 -137 -225 -25 -41 -80 -131 -122 -200 -43 -69
-98 -159 -122 -200 -24 -41 -84 -140 -134 -220 -50 -80 -110 -179 -134 -220
-24 -41 -54 -91 -66 -110 -51 -80 -197 -326 -198 -334 -3 -14 134 -106 147
-99 6 3 8 3 4 -2 -7 -7 76 -63 487 -330 102 -66 268 -173 368 -239 100 -65
218 -141 262 -169 44 -27 177 -114 295 -192 118 -78 262 -172 320 -209 114
-72 291 -187 650 -421 126 -82 278 -181 337 -219 59 -39 164 -107 233 -152 69
-45 197 -128 285 -184 88 -57 284 -185 435 -285 151 -100 329 -217 395 -260
66 -43 151 -98 189 -123 62 -41 69 -44 78 -28 13 23 132 177 259 336 55 69
132 168 171 220 39 52 92 120 118 150 51 60 329 408 452 566 42 55 102 128
132 164 31 36 54 70 51 77 -8 23 24 2 50 -33 l27 -35 141 74 c273 143 992 514
1052 544 22 11 141 73 265 137 124 65 286 150 360 188 74 39 209 110 300 158
91 48 226 119 300 157 74 39 162 85 194 102 33 18 134 70 225 116 91 47 226
116 300 155 116 62 145 73 225 85 50 8 233 38 406 65 173 28 385 62 470 75 85
14 268 43 405 65 138 22 365 59 505 83 l255 42 0 2718 0 2717 -665 0 c-366 0
-1134 0 -1708 0 -574 0 -1048 -2 -1053 -5 -5 -4 -9 -204 -9 -491 l0 -484 138
-1 c75 0 624 -1 1220 -2 972 -1 1082 -2 1082 -16 0 -9 0 -819 0 -1800 0 -1336
-3 -1787 -12 -1792 -6 -4 -36 -10 -67 -14 -66 -8 -563 -85 -736 -114 -386 -65
-475 -80 -526 -86 l-56 -7 -83 244 c-76 224 -290 864 -522 1558 -233 700 -743
2224 -806 2410 -39 113 -110 329 -160 480 -49 151 -108 327 -130 390 -22 63
-95 282 -162 485 -146 440 -130 395 -144 395 -6 0 -159 -76 -341 -168z m-161
-1447 c37 -110 80 -243 96 -295 16 -52 89 -268 161 -480 120 -353 144 -426
198 -605 10 -33 35 -105 55 -160 20 -55 100 -291 177 -525 77 -234 151 -454
164 -490 13 -36 85 -252 160 -480 75 -228 147 -444 160 -480 12 -36 77 -229
144 -430 66 -201 154 -464 195 -586 41 -121 76 -232 78 -245 3 -25 -67 -64
-802 -446 -91 -47 -218 -115 -283 -150 -65 -34 -121 -63 -123 -63 -3 0 -83
-42 -177 -93 -268 -145 -397 -209 -412 -203 -8 3 -47 49 -87 103 -39 54 -142
193 -228 308 -258 347 -703 948 -830 1121 -35 49 -197 267 -359 484 -162 217
-324 436 -361 485 -37 50 -148 200 -246 334 -185 252 -236 320 -539 730 -99
133 -206 279 -238 324 -32 45 -106 146 -164 224 -58 77 -105 145 -105 149 0 4
27 21 59 39 140 76 1562 798 2708 1375 275 138 504 256 510 261 5 5 12 6 16 2
3 -5 36 -98 73 -208z M11692 10083 c-73 -128 -104 -192 -97 -204 4 -5 1 -8 -5
-7 -6 2 -32 -33 -57 -77 -25 -44 -69 -120 -98 -170 -29 -49 -81 -143 -114
-207 l-61 -117 22 -14 c51 -31 217 -127 273 -157 33 -18 96 -54 140 -80 88
-52 546 -316 694 -400 52 -29 100 -53 108 -53 7 0 13 -4 13 -8 0 -5 21 -20 48
-35 26 -15 110 -64 187 -109 133 -78 180 -105 303 -170 43 -24 52 -33 52 -56
0 -15 -21 -164 -46 -331 -25 -167 -51 -348 -59 -403 -8 -55 -21 -138 -29 -185
-8 -47 -17 -111 -21 -142 -6 -46 -11 -58 -25 -58 -10 0 -100 9 -201 20 -316
34 -751 78 -856 87 -40 3 -73 3 -73 0 0 -3 -15 -160 -34 -349 -41 -409 -60
-627 -55 -632 2 -2 126 -15 274 -30 334 -32 544 -54 655 -66 47 -6 209 -21
360 -35 151 -14 388 -36 526 -50 137 -14 255 -25 261 -25 6 0 13 19 16 43 3
23 28 200 56 392 28 193 58 395 66 450 16 108 39 261 80 530 14 94 48 325 75
515 27 190 56 386 64 435 55 331 59 366 45 380 -30 28 -351 205 -361 199 -6
-4 -8 -3 -5 3 4 5 -6 16 -21 24 -15 8 -83 47 -152 88 -155 92 -472 276 -605
351 -55 31 -158 90 -230 132 -220 128 -606 349 -690 396 -44 24 -91 52 -105
61 -14 10 -56 35 -95 56 -38 20 -93 51 -121 66 l-51 29 -51 -87z M976 4102
l-279 -2 7 -648 c3 -356 9 -834 12 -1062 3 -228 7 -570 8 -760 l3 -345 99 -53
c55 -29 140 -75 189 -101 50 -26 126 -68 170 -93 84 -48 303 -167 620 -338
105 -56 228 -124 275 -150 47 -26 159 -88 250 -137 91 -50 242 -132 335 -183
94 -51 197 -110 230 -130 33 -21 88 -51 122 -69 l63 -31 25 51 c14 27 92 170
174 317 81 147 196 357 256 467 59 110 139 256 178 325 38 69 83 149 99 177
16 29 26 58 22 64 -4 7 -3 9 3 6 9 -6 160 256 166 286 1 7 5 14 9 17 9 7 125
216 133 239 5 15 -8 26 -67 59 -40 22 -131 72 -202 111 -71 39 -130 71 -132
71 -2 0 -45 26 -96 57 -51 31 -149 86 -218 121 -69 35 -130 68 -136 73 -13 11
-169 -264 -159 -281 3 -6 1 -9 -5 -8 -7 2 -52 -71 -99 -162 -48 -91 -112 -210
-142 -265 -31 -55 -75 -136 -99 -180 -34 -64 -90 -161 -106 -184 -4 -4 -238
119 -449 237 -222 124 -439 240 -456 244 -29 7 -51 41 -54 86 -3 26 -7 268
-10 537 -15 1429 -18 1630 -22 1635 -5 6 -288 6 -717 2z"/>
</g>
</svg>
